<svg width="50" height="50" viewBox="0 0 50 50" fill="none" xmlns="http://www.w3.org/2000/svg">
<g clip-path="url(#clip0_56_288)">
<path d="M41.6666 6.25L45.8333 14.5833V41.6667C45.8333 42.2192 45.6138 42.7491 45.2231 43.1398C44.8324 43.5305 44.3025 43.75 43.75 43.75H6.24996C5.69742 43.75 5.16752 43.5305 4.77682 43.1398C4.38612 42.7491 4.16663 42.2192 4.16663 41.6667V14.5917L8.33329 6.25H41.6666ZM41.6666 18.75H8.33329V39.5833H41.6666V18.75ZM25 20.8333L33.3333 29.1667H27.0833V37.5H22.9166V29.1667H16.6666L25 20.8333ZM39.0916 10.4167H10.9083L8.82704 14.5833H41.175L39.0916 10.4167Z" fill="#0C46C4"/>
</g>
<defs>
<clipPath id="clip0_56_288">
<rect width="50" height="50" fill="white"/>
</clipPath>
</defs>
</svg>
