<svg width="42" height="38" viewBox="0 0 53 50" fill="none" xmlns="http://www.w3.org/2000/svg">
<g clip-path="url(#clip0_56_241)">
<path d="M26.6458 45.8333C14.745 45.8333 5.09814 36.5062 5.09814 25C5.09814 13.4937 14.745 4.16663 26.6458 4.16663C38.5465 4.16663 48.1934 13.4937 48.1934 25C48.1934 36.5062 38.5465 45.8333 26.6458 45.8333ZM15.9 38.0333C18.9501 40.391 22.7406 41.6726 26.6458 41.6666C30.8906 41.6666 34.7757 40.1833 37.7794 37.725C36.3761 36.3328 34.6982 35.2268 32.8451 34.4725C30.992 33.7181 29.0012 33.3308 26.9905 33.3333C24.906 33.331 22.8437 33.7476 20.9345 34.5567C19.0253 35.3657 17.3109 36.5497 15.9 38.0333ZM12.8898 35.0416C14.7007 33.1834 16.8861 31.7035 19.3113 30.6931C21.7364 29.6827 24.3498 29.1632 26.9905 29.1666C29.5367 29.1634 32.0585 29.6465 34.411 30.5883C36.7635 31.53 38.9004 32.9117 40.6991 34.6541C42.5438 32.144 43.6331 29.1888 43.8463 26.1164C44.0595 23.0441 43.3882 19.9747 41.9068 17.2488C40.4255 14.5229 38.1921 12.2471 35.4544 10.6738C32.7166 9.10052 29.5816 8.29129 26.3971 8.3359C23.2126 8.38051 20.1032 9.27722 17.4137 10.9265C14.7243 12.5759 12.56 14.9133 11.161 17.6795C9.76196 20.4458 9.18291 23.5327 9.48807 26.5978C9.79324 29.6628 10.9707 32.5863 12.8898 35.0437V35.0416ZM26.6458 27.0833C24.3598 27.0833 22.1676 26.2053 20.5512 24.6425C18.9348 23.0797 18.0267 20.9601 18.0267 18.75C18.0267 16.5398 18.9348 14.4202 20.5512 12.8574C22.1676 11.2946 24.3598 10.4166 26.6458 10.4166C28.9317 10.4166 31.124 11.2946 32.7403 12.8574C34.3567 14.4202 35.2648 16.5398 35.2648 18.75C35.2648 20.9601 34.3567 23.0797 32.7403 24.6425C31.124 26.2053 28.9317 27.0833 26.6458 27.0833ZM26.6458 22.9166C27.7887 22.9166 28.8849 22.4776 29.6931 21.6962C30.5012 20.9148 30.9553 19.855 30.9553 18.75C30.9553 17.6449 30.5012 16.5851 29.6931 15.8037C28.8849 15.0223 27.7887 14.5833 26.6458 14.5833C25.5028 14.5833 24.4067 15.0223 23.5985 15.8037C22.7903 16.5851 22.3362 17.6449 22.3362 18.75C22.3362 19.855 22.7903 20.9148 23.5985 21.6962C24.4067 22.4776 25.5028 22.9166 26.6458 22.9166Z" fill="#0C46C4"/>
</g>
<defs>
<clipPath id="clip0_56_241">
<rect width="51.7143" height="50" fill="white" transform="translate(0.788574)"/>
</clipPath>
</defs>
</svg>
