<svg width="41" height="40" viewBox="0 0 41 40" fill="none" xmlns="http://www.w3.org/2000/svg">
<g clip-path="url(#clip0_44_14)">
<path d="M15.5 20C17.4891 20 19.3968 19.2098 20.8033 17.8033C22.2098 16.3968 23 14.4891 23 12.5C23 10.5109 22.2098 8.60322 20.8033 7.1967C19.3968 5.79018 17.4891 5 15.5 5C13.5109 5 11.6032 5.79018 10.1967 7.1967C8.79018 8.60322 8 10.5109 8 12.5C8 14.4891 8.79018 16.3968 10.1967 17.8033C11.6032 19.2098 13.5109 20 15.5 20ZM20.5 12.5C20.5 13.8261 19.9732 15.0979 19.0355 16.0355C18.0979 16.9732 16.8261 17.5 15.5 17.5C14.1739 17.5 12.9021 16.9732 11.9645 16.0355C11.0268 15.0979 10.5 13.8261 10.5 12.5C10.5 11.1739 11.0268 9.90215 11.9645 8.96447C12.9021 8.02678 14.1739 7.5 15.5 7.5C16.8261 7.5 18.0979 8.02678 19.0355 8.96447C19.9732 9.90215 20.5 11.1739 20.5 12.5ZM30.5 32.5C30.5 35 28 35 28 35H3C3 35 0.5 35 0.5 32.5C0.5 30 3 22.5 15.5 22.5C28 22.5 30.5 30 30.5 32.5ZM28 32.49C27.9975 31.875 27.615 30.025 25.92 28.33C24.29 26.7 21.2225 25 15.5 25C9.775 25 6.71 26.7 5.08 28.33C3.385 30.025 3.005 31.875 3 32.49H28Z" fill="black"/>
<path fill-rule="evenodd" clip-rule="evenodd" d="M34.25 12.5C34.5815 12.5 34.8995 12.6317 35.1339 12.8661C35.3683 13.1005 35.5 13.4185 35.5 13.75V17.5H39.25C39.5815 17.5 39.8995 17.6317 40.1339 17.8661C40.3683 18.1005 40.5 18.4185 40.5 18.75C40.5 19.0815 40.3683 19.3995 40.1339 19.6339C39.8995 19.8683 39.5815 20 39.25 20H35.5V23.75C35.5 24.0815 35.3683 24.3995 35.1339 24.6339C34.8995 24.8683 34.5815 25 34.25 25C33.9185 25 33.6005 24.8683 33.3661 24.6339C33.1317 24.3995 33 24.0815 33 23.75V20H29.25C28.9185 20 28.6005 19.8683 28.3661 19.6339C28.1317 19.3995 28 19.0815 28 18.75C28 18.4185 28.1317 18.1005 28.3661 17.8661C28.6005 17.6317 28.9185 17.5 29.25 17.5H33V13.75C33 13.4185 33.1317 13.1005 33.3661 12.8661C33.6005 12.6317 33.9185 12.5 34.25 12.5Z" fill="black"/>
</g>
<defs>
<clipPath id="clip0_44_14">
<rect width="40" height="40" fill="white" transform="translate(0.5)"/>
</clipPath>
</defs>
</svg>
