<svg width="41" height="40" viewBox="0 0 41 40" fill="none" xmlns="http://www.w3.org/2000/svg">
<path d="M19.2501 27.9166H21.75V21.2499H28.4167V18.75H21.75V12.0834H19.2501V18.75H12.5834V21.2499H19.2501V27.9166ZM20.5028 35.8333C18.3129 35.8333 16.2546 35.4177 14.3277 34.5866C12.4007 33.7555 10.7246 32.6276 9.29925 31.2029C7.87386 29.7781 6.74543 28.1027 5.91396 26.1766C5.08248 24.2506 4.66675 22.1927 4.66675 20.0028C4.66675 17.8129 5.0823 15.7545 5.91342 13.8276C6.74453 11.9007 7.87244 10.2246 9.29716 8.79919C10.7219 7.3738 12.3973 6.24537 14.3234 5.4139C16.2494 4.58242 18.3074 4.16669 20.4973 4.16669C22.6871 4.16669 24.7455 4.58224 26.6724 5.41336C28.5993 6.24447 30.2755 7.37238 31.7008 8.7971C33.1262 10.2219 34.2547 11.8973 35.0861 13.8233C35.9176 15.7493 36.3333 17.8073 36.3333 19.9972C36.3333 22.1871 35.9178 24.2455 35.0867 26.1724C34.2556 28.0993 33.1276 29.7754 31.7029 31.2008C30.2782 32.6262 28.6028 33.7546 26.6767 34.5861C24.7507 35.4175 22.6927 35.8333 20.5028 35.8333ZM20.5 33.3333C24.2223 33.3333 27.375 32.0416 29.9584 29.4583C32.5417 26.875 33.8334 23.7222 33.8334 20C33.8334 16.2778 32.5417 13.125 29.9584 10.5416C27.375 7.95831 24.2223 6.66665 20.5 6.66665C16.7778 6.66665 13.625 7.95831 11.0417 10.5416C8.45837 13.125 7.16671 16.2778 7.16671 20C7.16671 23.7222 8.45837 26.875 11.0417 29.4583C13.625 32.0416 16.7778 33.3333 20.5 33.3333Z" fill="black"/>
</svg>
