<svg width="42" height="38" viewBox="0 0 42 38" fill="none" xmlns="http://www.w3.org/2000/svg">
<path d="M0.166626 2.31875C0.170439 1.77162 0.389335 1.24795 0.776028 0.86087C1.16272 0.473787 1.68617 0.254364 2.23329 0.25H39.7666C40.9083 0.25 41.8333 1.17708 41.8333 2.31875V35.6812C41.8295 36.2284 41.6106 36.752 41.2239 37.1391C40.8372 37.5262 40.3137 37.7456 39.7666 37.75H2.23329C1.68499 37.7494 1.15933 37.5312 0.771812 37.1433C0.384297 36.7554 0.166626 36.2296 0.166626 35.6812V2.31875ZM4.33329 4.41667V33.5833H37.6666V4.41667H4.33329ZM8.49996 8.58333H21V21.0833H8.49996V8.58333ZM12.6666 12.75V16.9167H16.8333V12.75H12.6666ZM8.49996 25.25H33.5V29.4167H8.49996V25.25ZM25.1666 8.58333H33.5V12.75H25.1666V8.58333ZM25.1666 16.9167H33.5V21.0833H25.1666V16.9167Z" fill="#0C46C4"/>
</svg>
