<svg width="41" height="40" viewBox="0 0 41 40" fill="none" xmlns="http://www.w3.org/2000/svg">
<path d="M33.0705 34.2948L22.6025 23.8268C21.7692 24.5149 20.8108 25.0533 19.7275 25.4422C18.6442 25.8311 17.5235 26.0256 16.3653 26.0256C13.5167 26.0256 11.1059 25.0392 9.13276 23.0666C7.15965 21.094 6.1731 18.6838 6.1731 15.8359C6.1731 12.988 7.1594 10.5769 9.13201 8.60255C11.1046 6.62822 13.5149 5.64105 16.3628 5.64105C19.2106 5.64105 21.6217 6.62761 23.5961 8.60072C25.5705 10.5738 26.5576 12.9847 26.5576 15.8333C26.5576 17.0235 26.3578 18.1602 25.9583 19.2436C25.5587 20.3269 25.0256 21.2692 24.3589 22.0705L34.8268 32.5384L33.0705 34.2948ZM16.3653 23.5256C18.5128 23.5256 20.3317 22.7804 21.8221 21.2901C23.3125 19.7997 24.0577 17.9807 24.0577 15.8333C24.0577 13.6859 23.3125 11.8669 21.8221 10.3766C20.3317 8.88617 18.5128 8.14097 16.3653 8.14097C14.2179 8.14097 12.399 8.88617 10.9086 10.3766C9.41824 11.8669 8.67305 13.6859 8.67305 15.8333C8.67305 17.9807 9.41824 19.7997 10.9086 21.2901C12.399 22.7804 14.2179 23.5256 16.3653 23.5256Z" fill="black"/>
</svg>
