<svg width="41" height="40" viewBox="0 0 41 40" fill="none" xmlns="http://www.w3.org/2000/svg">
<path d="M10.5385 28.8205C11.9552 27.7692 13.4985 26.9391 15.1683 26.3301C16.8382 25.7212 18.6154 25.4167 20.5 25.4167C22.3847 25.4167 24.1619 25.7212 25.8318 26.3301C27.5016 26.9391 29.0449 27.7692 30.4615 28.8205C31.4979 27.6816 32.3189 26.3633 32.9247 24.8654C33.5305 23.3675 33.8334 21.7457 33.8334 20C33.8334 16.3055 32.5348 13.1597 29.9375 10.5625C27.3403 7.96526 24.1945 6.66665 20.5 6.66665C16.8056 6.66665 13.6598 7.96526 11.0625 10.5625C8.46532 13.1597 7.16671 16.3055 7.16671 20C7.16671 21.7457 7.4696 23.3675 8.07537 24.8654C8.68115 26.3633 9.50221 27.6816 10.5385 28.8205ZM20.5005 21.2499C18.9788 21.2499 17.6956 20.7277 16.6507 19.6831C15.6058 18.6386 15.0834 17.3555 15.0834 15.8338C15.0834 14.3121 15.6057 13.0288 16.6502 11.984C17.6948 10.9391 18.9779 10.4167 20.4995 10.4167C22.0212 10.4167 23.3045 10.939 24.3494 11.9835C25.3942 13.028 25.9167 14.3111 25.9167 15.8328C25.9167 17.3545 25.3944 18.6378 24.3499 19.6826C23.3053 20.7275 22.0222 21.2499 20.5005 21.2499ZM20.5 35.8333C18.3013 35.8333 16.2388 35.4198 14.3126 34.5929C12.3863 33.7659 10.7106 32.6399 9.28533 31.2147C7.86014 29.7895 6.73408 28.1137 5.90716 26.1874C5.08022 24.2612 4.66675 22.1987 4.66675 20C4.66675 17.8013 5.08022 15.7388 5.90716 13.8125C6.73408 11.8862 7.86014 10.2105 9.28533 8.78527C10.7106 7.36008 12.3863 6.23402 14.3126 5.4071C16.2388 4.58016 18.3013 4.16669 20.5 4.16669C22.6988 4.16669 24.7613 4.58016 26.6875 5.4071C28.6138 6.23402 30.2895 7.36008 31.7148 8.78527C33.1399 10.2105 34.266 11.8862 35.0929 13.8125C35.9199 15.7388 36.3333 17.8013 36.3333 20C36.3333 22.1987 35.9199 24.2612 35.0929 26.1874C34.266 28.1137 33.1399 29.7895 31.7148 31.2147C30.2895 32.6399 28.6138 33.7659 26.6875 34.5929C24.7613 35.4198 22.6988 35.8333 20.5 35.8333ZM20.5 33.3333C22.0043 33.3333 23.4546 33.0913 24.851 32.6074C26.2474 32.1234 27.4873 31.4466 28.5706 30.5769C27.4873 29.7393 26.2634 29.0865 24.8991 28.6186C23.5348 28.1506 22.0684 27.9166 20.5 27.9166C18.9317 27.9166 17.4626 28.1479 16.093 28.6105C14.7233 29.0731 13.5021 29.7286 12.4295 30.5769C13.5128 31.4466 14.7527 32.1234 16.1491 32.6074C17.5454 33.0913 18.9958 33.3333 20.5 33.3333ZM20.5 18.75C21.3291 18.75 22.0225 18.4712 22.5802 17.9135C23.1379 17.3558 23.4167 16.6624 23.4167 15.8333C23.4167 15.0043 23.1379 14.3109 22.5802 13.7531C22.0225 13.1955 21.3291 12.9166 20.5 12.9166C19.671 12.9166 18.9776 13.1955 18.4199 13.7531C17.8622 14.3109 17.5833 15.0043 17.5833 15.8333C17.5833 16.6624 17.8622 17.3558 18.4199 17.9135C18.9776 18.4712 19.671 18.75 20.5 18.75Z" fill="black"/>
</svg>
