<svg width="80" height="80" viewBox="0 0 80 80" fill="none" xmlns="http://www.w3.org/2000/svg">
<path d="M20.077 57.6411C22.9103 55.5385 25.9968 53.8783 29.3365 52.6603C32.6763 51.4424 36.2307 50.8334 40 50.8334C43.7692 50.8334 47.3237 51.4424 50.6634 52.6603C54.0031 53.8783 57.0896 55.5385 59.923 57.6411C61.9956 55.3633 63.6377 52.7266 64.8493 49.7308C66.0609 46.7351 66.6666 43.4914 66.6666 40C66.6666 32.6111 64.0694 26.3194 58.875 21.125C53.6805 15.9306 47.3889 13.3333 40 13.3333C32.6111 13.3333 26.3194 15.9306 21.125 21.125C15.9305 26.3194 13.3333 32.6111 13.3333 40C13.3333 43.4914 13.9391 46.7351 15.1506 49.7308C16.3622 52.7266 18.0043 55.3633 20.077 57.6411ZM40.001 42.4999C36.9576 42.4999 34.391 41.4554 32.3013 39.3663C30.2116 37.2772 29.1667 34.711 29.1667 31.6677C29.1667 28.6243 30.2112 26.0577 32.3003 23.968C34.3894 21.8783 36.9556 20.8334 39.999 20.8334C43.0424 20.8334 45.6089 21.8779 47.6986 23.967C49.7883 26.0561 50.8332 28.6223 50.8332 31.6657C50.8332 34.7091 49.7887 37.2756 47.6996 39.3653C45.6105 41.4551 43.0443 42.4999 40.001 42.4999ZM40 71.6666C35.6025 71.6666 31.4775 70.8396 27.625 69.1858C23.7725 67.5319 20.421 65.2798 17.5705 62.4294C14.7202 59.579 12.468 56.2275 10.8142 52.3749C9.16032 48.5224 8.33337 44.3974 8.33337 40C8.33337 35.6026 9.16032 31.4776 10.8142 27.6251C12.468 23.7725 14.7202 20.421 17.5705 17.5706C20.421 14.7202 23.7725 12.4681 27.625 10.8142C31.4775 9.16036 35.6025 8.33341 40 8.33341C44.3974 8.33341 48.5224 9.16036 52.3749 10.8142C56.2274 12.4681 59.5789 14.7202 62.4294 17.5706C65.2798 20.421 67.5319 23.7725 69.1857 27.6251C70.8396 31.4776 71.6666 35.6026 71.6666 40C71.6666 44.3974 70.8396 48.5224 69.1857 52.3749C67.5319 56.2275 65.2798 59.579 62.4294 62.4294C59.5789 65.2798 56.2274 67.5319 52.3749 69.1858C48.5224 70.8396 44.3974 71.6666 40 71.6666ZM40 66.6667C43.0085 66.6667 45.9092 66.1827 48.7019 65.2148C51.4947 64.2468 53.9744 62.8932 56.141 61.1538C53.9744 59.4786 51.5267 58.1731 48.798 57.2372C46.0694 56.3012 43.1367 55.8333 40 55.8333C36.8632 55.8333 33.9251 56.2959 31.1858 57.2211C28.4465 58.1463 26.0042 59.4572 23.8589 61.1538C26.0255 62.8932 28.5053 64.2468 31.298 65.2148C34.0908 66.1827 36.9914 66.6667 40 66.6667ZM40 37.5001C41.6581 37.5001 43.0448 36.9424 44.1603 35.827C45.2757 34.7116 45.8334 33.3248 45.8334 31.6667C45.8334 30.0086 45.2757 28.6218 44.1603 27.5063C43.0448 26.3909 41.6581 25.8333 40 25.8333C38.3418 25.8333 36.9551 26.3909 35.8396 27.5063C34.7242 28.6218 34.1665 30.0086 34.1665 31.6667C34.1665 33.3248 34.7242 34.7116 35.8396 35.827C36.9551 36.9424 38.3418 37.5001 40 37.5001Z" fill="black"/>
</svg>
