<svg width="42" height="38" viewBox="0 0 46 44" fill="none" xmlns="http://www.w3.org/2000/svg">
<path d="M35.5833 12.5834H46V16.75H35.5833V12.5834ZM31.4166 23H46V27.1667H31.4166V23ZM37.6666 33.4167H46V37.5834H37.6666V33.4167ZM0.166626 43.8334C0.166626 39.4131 1.92257 35.1739 5.04818 32.0483C8.17379 28.9227 12.413 27.1667 16.8333 27.1667C21.2536 27.1667 25.4928 28.9227 28.6184 32.0483C31.744 35.1739 33.5 39.4131 33.5 43.8334H29.3333C29.3333 40.5182 28.0163 37.3387 25.6721 34.9945C23.3279 32.6503 20.1485 31.3334 16.8333 31.3334C13.5181 31.3334 10.3387 32.6503 7.99446 34.9945C5.65025 37.3387 4.33329 40.5182 4.33329 43.8334H0.166626ZM16.8333 25.0834C9.92704 25.0834 4.33329 19.4896 4.33329 12.5834C4.33329 5.67712 9.92704 0.083374 16.8333 0.083374C23.7395 0.083374 29.3333 5.67712 29.3333 12.5834C29.3333 19.4896 23.7395 25.0834 16.8333 25.0834ZM16.8333 20.9167C21.4375 20.9167 25.1666 17.1875 25.1666 12.5834C25.1666 7.97921 21.4375 4.25004 16.8333 4.25004C12.2291 4.25004 8.49996 7.97921 8.49996 12.5834C8.49996 17.1875 12.2291 20.9167 16.8333 20.9167Z" fill="#0C46C4"/>
</svg>
